<?xml version="1.0" encoding="UTF-8"?>
<svg id="Layer_1" xmlns="http://www.w3.org/2000/svg" version="1.1" viewBox="360 395 1160 290">
  <!-- Generator: Adobe Illustrator 30.3.0, SVG Export Plug-In . SVG Version: 2.1.3 Build 182)  -->
  <defs>
    <linearGradient id="navyGrad" x1="0" y1="0" x2="0" y2="1">
      <stop offset="0%" stop-color="#1F3855"/>
      <stop offset="35%" stop-color="#1A3047"/>
      <stop offset="75%" stop-color="#13243A"/>
      <stop offset="100%" stop-color="#0A1421"/>
    </linearGradient>
    <linearGradient id="navyBrushed" x1="0" y1="0" x2="0" y2="1">
      <stop offset="0%" stop-color="#1A3047"/>
      <stop offset="60%" stop-color="#1A3047"/>
      <stop offset="100%" stop-color="#0E1A2A"/>
    </linearGradient>
    <linearGradient id="steelGrad" x1="0" y1="0" x2="0" y2="1">
      <stop offset="0%" stop-color="#F3F5F8"/>
      <stop offset="38%" stop-color="#C9CFDA"/>
      <stop offset="62%" stop-color="#8A93A3"/>
      <stop offset="85%" stop-color="#E0E4EA"/>
      <stop offset="100%" stop-color="#AAB1BF"/>
    </linearGradient>
    <style>
      .st0 {
        fill: url(#navyBrushed);
      }

      .st1 {
        fill: url(#navyGrad);
      }

      .st2 {
        fill: url(#navyGrad);
      }

      .stN {
        fill: url(#steelGrad);
      }
    </style>
  </defs>
  <g>
    <g>
      <g>
        <g>
          <polygon class="st0" points="713.62 556.17 713.62 491.62 676.39 441.47 676.39 556.17 713.62 556.17"/>
          <polygon class="st0" points="766.02 412.98 766.02 489.67 717.2 412.98 676.39 412.98 676.39 425.88 768.57 556.17 805.5 556.17 805.5 412.98 766.02 412.98"/>
        </g>
        <polygon class="st0" points="959.91 556.17 909.38 412.98 867.12 412.98 813.92 556.17 849.38 556.17 885.33 456.67 900.04 502.64 878.11 502.64 868.27 531.42 909.24 531.42 917.16 556.17 959.91 556.17"/>
        <path class="st0" d="M1004.18,511.93h-38.8v19.99c0,13.39,10.85,24.24,24.24,24.24h45.17c17.49,0,43.44,2.06,49.73-23.11,2.19-8.74,2.43-32.12-1.94-39.78-4.37-7.65-24.9-17.37-50.4-23.56-25.5-6.19-28.09-6.8-28.09-10.99v-13.42c0-1.95,1.58-3.52,3.52-3.52h33.85c1.95,0,3.52,1.58,3.52,3.52v11.33h36.62v-13.92c0-16.43-13.32-29.74-29.74-29.74h-56.75c-16.43,0-29.74,13.32-29.74,29.74v10.28c0,11.48-1.61,24.17,12.84,32.55s51.13,16.52,59.39,19.43c8.26,2.91,8.87,4.98,8.87,13v9.23c0,1.95-1.58,3.52-3.52,3.52h-35.2c-1.94,0-3.52-1.57-3.52-3.51l-.05-15.28Z"/>
        <path class="st0" d="M1381.47,443.5v82.19c0,16.86,13.66,30.52,30.52,30.52h67.88c16.86,0,30.52-13.66,30.52-30.52v-82.19c0-16.86-13.66-30.52-30.52-30.52h-67.88c-16.86,0-30.52,13.66-30.52,30.52ZM1421.79,523.89v-76.33c0-3.25,2.64-5.89,5.89-5.89h36.5c3.25,0,5.89,2.64,5.89,5.89v76.33c0,3.25-2.64,5.89-5.89,5.89h-36.5c-3.25,0-5.89-2.64-5.89-5.89Z"/>
        <path class="st0" d="M1326.81,526.66c0,1.73-1.4,3.13-3.13,3.13h-32.12c-1.73,0-3.13-1.4-3.13-3.13v-81.86c0-1.73,1.4-3.13,3.13-3.13h32.12c1.73,0,3.13,1.4,3.13,3.13v17.46h40.32v-21.7c0-15.23-12.35-27.57-27.57-27.57h-63.87c-15.23,0-27.57,12.35-27.57,27.57v88.08c0,15.23,12.35,27.57,27.57,27.57h63.87c15.23,0,27.57-12.35,27.57-27.57v-22.17h-40.32v20.19Z"/>
        <polygon class="st0" points="1186.41 412.98 1186.41 469.97 1141.72 469.97 1141.72 412.98 1101.4 412.98 1101.4 556.21 1141.72 556.21 1141.72 501.49 1186.41 501.49 1186.41 556.21 1226.74 556.21 1226.74 412.98 1186.41 412.98"/>
      </g>
      <g>
        <path class="st1" d="M854.18,614.03c0-17.4-12.72-22.79-28.24-22.79h-26.35v73.18h16.54v-26.33h9.1l13.97,26.33h18.51l-16.56-29.27c7.82-3.53,13.03-10.36,13.03-21.12ZM816.13,604.38h8.46c8.7,0,13.38,2.42,13.38,9.65s-4.67,10.92-13.38,10.92h-8.46v-20.57Z"/>
        <polygon class="st1" points="911.79 633.69 936.74 633.69 936.74 619.82 911.79 619.82 911.79 605.12 941.1 605.12 941.1 591.25 895.25 591.25 895.25 664.42 942.22 664.42 942.22 650.55 911.79 650.55 911.79 633.69"/>
        <polygon class="st1" points="1041 591.24 1041 664.42 1024.04 664.42 995.62 616.35 995.62 664.42 979.86 664.42 979.86 591.24 996.8 591.24 1025.23 640.01 1025.23 591.24 1041 591.24"/>
        <polygon class="st1" points="1079.3 605.12 1099.44 605.12 1099.44 664.42 1115.98 664.42 1115.98 605.12 1136.12 605.12 1136.12 591.25 1079.3 591.25 1079.3 605.12"/>
        <path class="st1" d="M1187.85,591.25l-22.98,73.18h16.92l4.52-17.43h22.31l4.5,17.43h17.51l-22.98-73.18h-19.8ZM1189.63,634.14l1.76-6.77c2.03-7.32,3.99-15.88,5.76-23.6h.45c1.95,7.63,3.91,16.29,5.94,23.6l1.75,6.77h-15.66Z"/>
        <polygon class="st1" points="1282.49 591.25 1265.95 591.25 1265.95 664.42 1313.48 664.42 1313.48 650.55 1282.49 650.55 1282.49 591.25"/>
        <path class="st1" d="M1377.46,623.18l-9.33-3.78c-6.39-2.54-11.17-4.17-11.17-8.66,0-4.19,3.63-6.56,9.34-6.56s10.37,2.03,15.19,5.73l8.35-10.43c-6.3-6.27-15.11-9.59-23.54-9.59-15.23,0-26.06,9.68-26.06,21.81,0,10.63,7.19,16.86,14.77,19.95l9.51,4.05c6.39,2.63,10.55,4.11,10.55,8.71,0,4.34-3.38,7.06-10.29,7.06-6.02,0-12.77-3.12-17.97-7.65l-9.5,11.35c7.46,6.97,17.58,10.58,27.11,10.58,17.44,0,27.57-10.53,27.57-22.68,0-10.34-5.58-16.29-14.52-19.91Z"/>
      </g>
    </g>
    <g>
      <rect class="st0" x="677.3" y="617.36" width="113.43" height="10.67"/>
      <rect class="st0" x="1396.05" y="621.06" width="113.43" height="11.5"/>
    </g>
  </g>
  <g>
    <path class="st2" d="M618.56,570.7l-17.8-26.71c13.85-6.53,21.84-12.78,24.41-31.37,2.85-23.57-11.99-34.64-32.84-34.64h-40.4l-14.13,100.5h25.83l4.43-31.94h4.56l28.56,44.42,10.07,15.67c-1.72,1.76-3.51,3.46-5.35,5.1-18.27,16.22-42.36,26.1-68.73,26.1-56.96,0-103.3-46.08-103.3-102.72,0-50.54,36.9-92.68,85.31-101.18l3.57-24.89c-63.58,7.15-113.16,60.96-113.16,126.07,0,69.95,57.24,126.86,127.58,126.86,31.17,0,59.77-11.18,81.94-29.71,1.88-1.56,3.72-3.18,5.5-4.86,6.69-6.25,12.69-13.22,17.88-20.77l-14.76-22.14-9.19-13.78ZM599.33,513.04c-.7,5.82-5.28,11.64-13.13,11.64h-14.98l3.28-22.99h14.99c7.56,0,10.56,5.25,9.84,11.36Z"/>
    <path class="stN" d="M562.66,410.76c-2.38-.47-4.77-.89-7.19-1.23-5.97-.86-12.08-1.3-18.28-1.3-2.34,0-4.67.06-6.98.19l-3.51,24.48-3.47,24.21-9.54,66.42.28,17.32-.57.14-5.71-20.16-18.41-42.87h-24.28l-14.13,100.5h25.55l5.57-40.17-.29-19.44.57-.14,6,20.16,17.27,39.6h25.84l17.64-123.68,3.04-21.36c2.43.35,4.82.78,7.19,1.3,46.41,10.07,81.25,51.25,81.25,100.37,0,14.92-3.22,29.09-9,41.9l15.29,22.96c11.42-18.98,17.98-41.17,17.98-64.85,0-61.29-43.92-112.57-102.11-124.34Z"/>
  </g>
  <g>
    <path class="st1" d="M619.16,570.7l-17.8-26.71c13.85-6.53,21.84-12.78,24.41-31.37,2.85-23.57-11.99-34.64-32.84-34.64h-40.4l-14.13,100.5h25.83l4.43-31.94h4.56l28.56,44.42,10.07,15.67c-1.72,1.76-3.51,3.46-5.35,5.1-18.27,16.22-42.36,26.1-68.73,26.1-56.96,0-103.3-46.08-103.3-102.72,0-50.54,36.9-92.68,85.31-101.18l3.57-24.89c-63.58,7.15-113.16,60.96-113.16,126.07,0,69.95,57.24,126.86,127.58,126.86,31.17,0,59.77-11.18,81.94-29.71,1.88-1.56,3.72-3.18,5.5-4.86,6.69-6.25,12.69-13.22,17.88-20.77l-14.76-22.14-9.19-13.78ZM599.93,513.04c-.7,5.82-5.28,11.64-13.13,11.64h-14.98l3.28-22.99h14.99c7.56,0,10.56,5.25,9.84,11.36Z"/>
    <path class="stN" d="M563.26,410.76c-2.38-.47-4.77-.89-7.19-1.23-5.97-.86-12.08-1.3-18.28-1.3-2.34,0-4.67.06-6.98.19l-3.51,24.48-3.47,24.21-9.54,66.42.28,17.32-.57.14-5.71-20.16-18.41-42.87h-24.28l-14.13,100.5h25.55l5.57-40.17-.29-19.44.57-.14,6,20.16,17.27,39.6h25.84l17.64-123.68,3.04-21.36c2.43.35,4.82.78,7.19,1.3,46.41,10.07,81.25,51.25,81.25,100.37,0,14.92-3.22,29.09-9,41.9l15.29,22.96c11.42-18.98,17.98-41.17,17.98-64.85,0-61.29-43.92-112.57-102.11-124.34Z"/>
  </g>
</svg>