<svg xmlns="http://www.w3.org/2000/svg" viewBox="0 0 64 64">
  <rect width="64" height="64" rx="10" fill="#0a0d14"/>
  <svg x="7" y="7" width="50" height="50" viewBox="360 380 300 300" preserveAspectRatio="xMidYMid meet">
    <path fill="#3b82f6" d="M618.56,570.7l-17.8-26.71c13.85-6.53,21.84-12.78,24.41-31.37,2.85-23.57-11.99-34.64-32.84-34.64h-40.4l-14.13,100.5h25.83l4.43-31.94h4.56l28.56,44.42,10.07,15.67c-1.72,1.76-3.51,3.46-5.35,5.1-18.27,16.22-42.36,26.1-68.73,26.1-56.96,0-103.3-46.08-103.3-102.72,0-50.54,36.9-92.68,85.31-101.18l3.57-24.89c-63.58,7.15-113.16,60.96-113.16,126.07,0,69.95,57.24,126.86,127.58,126.86,31.17,0,59.77-11.18,81.94-29.71,1.88-1.56,3.72-3.18,5.5-4.86,6.69-6.25,12.69-13.22,17.88-20.77l-14.76-22.14-9.19-13.78ZM599.33,513.04c-.7,5.82-5.28,11.64-13.13,11.64h-14.98l3.28-22.99h14.99c7.56,0,10.56,5.25,9.84,11.36Z"/>
    <path fill="#e8ebf0" d="M562.66,410.76c-2.38-.47-4.77-.89-7.19-1.23-5.97-.86-12.08-1.3-18.28-1.3-2.34,0-4.67.06-6.98.19l-3.51,24.48-3.47,24.21-9.54,66.42.28,17.32-.57.14-5.71-20.16-18.41-42.87h-24.28l-14.13,100.5h25.55l5.57-40.17-.29-19.44.57-.14,6,20.16,17.27,39.6h25.84l17.64-123.68,3.04-21.36c2.43.35,4.82.78,7.19,1.3,46.41,10.07,81.25,51.25,81.25,100.37,0,14.92-3.22,29.09-9,41.9l15.29,22.96c11.42-18.98,17.98-41.17,17.98-64.85,0-61.29-43.92-112.57-102.11-124.34Z"/>
    <path fill="#2563eb" d="M619.16,570.7l-17.8-26.71c13.85-6.53,21.84-12.78,24.41-31.37,2.85-23.57-11.99-34.64-32.84-34.64h-40.4l-14.13,100.5h25.83l4.43-31.94h4.56l28.56,44.42,10.07,15.67c-1.72,1.76-3.51,3.46-5.35,5.1-18.27,16.22-42.36,26.1-68.73,26.1-56.96,0-103.3-46.08-103.3-102.72,0-50.54,36.9-92.68,85.31-101.18l3.57-24.89c-63.58,7.15-113.16,60.96-113.16,126.07,0,69.95,57.24,126.86,127.58,126.86,31.17,0,59.77-11.18,81.94-29.71,1.88-1.56,3.72-3.18,5.5-4.86,6.69-6.25,12.69-13.22,17.88-20.77l-14.76-22.14-9.19-13.78ZM599.93,513.04c-.7,5.82-5.28,11.64-13.13,11.64h-14.98l3.28-22.99h14.99c7.56,0,10.56,5.25,9.84,11.36Z"/>
    <path fill="#e8ebf0" d="M563.26,410.76c-2.38-.47-4.77-.89-7.19-1.23-5.97-.86-12.08-1.3-18.28-1.3-2.34,0-4.67.06-6.98.19l-3.51,24.48-3.47,24.21-9.54,66.42.28,17.32-.57.14-5.71-20.16-18.41-42.87h-24.28l-14.13,100.5h25.55l5.57-40.17-.29-19.44.57-.14,6,20.16,17.27,39.6h25.84l17.64-123.68,3.04-21.36c2.43.35,4.82.78,7.19,1.3,46.41,10.07,81.25,51.25,81.25,100.37,0,14.92-3.22,29.09-9,41.9l15.29,22.96c11.42-18.98,17.98-41.17,17.98-64.85,0-61.29-43.92-112.57-102.11-124.34Z"/>
  </svg>
</svg>
